<svg width="35" height="34" viewBox="0 0 35 34" fill="none" xmlns="http://www.w3.org/2000/svg">
<g filter="url(#filter0_d_3_8152)">
<path d="M28.1299 16.0357C27.8706 12.2882 26.1351 8.79679 23.3045 6.32745C20.4738 3.85812 16.7791 2.61263 13.0312 2.86429C9.28456 3.12479 5.79425 4.86071 3.32587 7.69126C0.857499 10.5218 -0.387383 14.2159 -0.135691 17.9631C-0.125952 18.1108 -0.087126 18.2551 -0.0214438 18.3878C0.0442383 18.5205 0.135484 18.6388 0.247051 18.7362C0.358617 18.8335 0.488307 18.9078 0.628673 18.9548C0.76904 19.0019 0.917318 19.0207 1.06499 19.0103C1.21289 19.0005 1.35743 18.9617 1.49033 18.8961C1.62324 18.8305 1.74192 18.7393 1.83958 18.6278C1.93725 18.5163 2.01199 18.3867 2.05954 18.2463C2.10709 18.1059 2.12652 17.9575 2.11671 17.8096C2.00917 16.2473 2.21273 14.6793 2.71559 13.1963C3.21846 11.7132 4.01062 10.3448 5.04619 9.17011C6.07007 7.98671 7.31863 7.01827 8.71952 6.32093C10.1204 5.62358 11.6458 5.21119 13.2072 5.10766C16.3557 4.90197 19.4573 5.95288 21.8324 8.03006C24.2074 10.1072 25.662 13.0413 25.8775 16.1891C25.9881 17.7498 25.7882 19.317 25.2892 20.7999C24.7902 22.2829 24.0022 23.6522 22.9706 24.8286C21.9467 26.012 20.6982 26.9804 19.2973 27.6778C17.8964 28.3751 16.371 28.7875 14.8096 28.8911C13.162 29.0015 11.5094 28.7698 9.95578 28.2105C8.40212 27.6512 6.98104 26.7764 5.78194 25.6411C5.56509 25.4355 5.27556 25.3244 4.97685 25.332C4.67815 25.3396 4.39466 25.4654 4.18856 25.6817C3.983 25.8986 3.87184 26.1881 3.87945 26.4868C3.88707 26.7855 4.01284 27.069 4.22919 27.2751C6.86674 29.7762 10.3623 31.1718 13.9971 31.1751C14.3131 31.1751 14.6336 31.1751 14.9541 31.1389C18.7036 30.8819 22.1976 29.1467 24.6683 26.3146C27.1389 23.4825 28.384 19.7854 28.1299 16.0357Z" fill="url(#paint0_linear_3_8152)"/>
<path d="M14.7967 10.9853C14.5838 10.7752 14.2968 10.6575 13.9977 10.6575C13.6987 10.6575 13.4116 10.7752 13.1988 10.9853L7.9853 16.1988C7.93245 16.2522 7.88553 16.3113 7.84537 16.3748C7.82862 16.4009 7.81354 16.428 7.80024 16.4561C7.77628 16.4912 7.75658 16.5291 7.74156 16.5689C7.72683 16.6056 7.71477 16.6433 7.70545 16.6818C7.69375 16.7141 7.68469 16.7473 7.67836 16.7811C7.64481 16.9296 7.64481 17.0838 7.67836 17.2324C7.68469 17.2662 7.69375 17.2994 7.70545 17.3317C7.71542 17.37 7.72748 17.4077 7.74156 17.4446C7.75658 17.4844 7.77628 17.5223 7.80024 17.5574C7.81354 17.5854 7.82862 17.6126 7.84537 17.6387C7.88445 17.7016 7.93148 17.7593 7.9853 17.8102L13.1988 23.0282C13.4116 23.2385 13.6985 23.3568 13.9977 23.3577C14.2969 23.3568 14.5838 23.2385 14.7967 23.0282C15.0067 22.8153 15.1245 22.5283 15.1245 22.2293C15.1245 21.9302 15.0067 21.6432 14.7967 21.4303L11.5061 18.1397H19.2112C19.3596 18.1403 19.5066 18.1115 19.6438 18.055C19.7809 17.9985 19.9056 17.9154 20.0105 17.8105C20.1154 17.7056 20.1985 17.581 20.255 17.4438C20.3115 17.3066 20.3403 17.1596 20.3397 17.0113C20.3397 16.712 20.2208 16.4249 20.0091 16.2133C19.7975 16.0017 19.5105 15.8828 19.2112 15.8828H11.5061L14.7967 12.5967C14.9027 12.4911 14.9869 12.3655 15.0443 12.2272C15.1017 12.089 15.1312 11.9407 15.1312 11.791C15.1312 11.6413 15.1017 11.4931 15.0443 11.3548C14.9869 11.2165 14.9027 11.091 14.7967 10.9853Z" fill="url(#paint1_linear_3_8152)"/>
</g>
<defs>
<filter id="filter0_d_3_8152" x="-9" y="-6" width="46" height="46" filterUnits="userSpaceOnUse" color-interpolation-filters="sRGB">
<feFlood flood-opacity="0" result="BackgroundImageFix"/>
<feColorMatrix in="SourceAlpha" type="matrix" values="0 0 0 0 0 0 0 0 0 0 0 0 0 0 0 0 0 0 127 0" result="hardAlpha"/>
<feOffset/>
<feGaussianBlur stdDeviation="3"/>
<feComposite in2="hardAlpha" operator="out"/>
<feColorMatrix type="matrix" values="0 0 0 0 0 0 0 0 0 0 0 0 0 0 0 0 0 0 0.2 0"/>
<feBlend mode="normal" in2="BackgroundImageFix" result="effect1_dropShadow_3_8152"/>
<feBlend mode="normal" in="SourceGraphic" in2="effect1_dropShadow_3_8152" result="shape"/>
</filter>
<linearGradient id="paint0_linear_3_8152" x1="-3.63391" y1="34.6326" x2="32.2511" y2="-1.25233" gradientUnits="userSpaceOnUse">
<stop stop-color="#F57C00"/>
<stop offset="1" stop-color="#FFBD52"/>
</linearGradient>
<linearGradient id="paint1_linear_3_8152" x1="-1249.7" y1="-652.168" x2="-243.21" y2="-1657.7" gradientUnits="userSpaceOnUse">
<stop stop-color="#F57C00"/>
<stop offset="1" stop-color="#FFBD52"/>
</linearGradient>
</defs>
</svg>
