<svg width="35" height="34" viewBox="0 0 35 34" fill="none" xmlns="http://www.w3.org/2000/svg">
<g filter="url(#filter0_d_3_8153)">
<path d="M6.87007 16.0357C7.12943 12.2882 8.86486 8.79679 11.6955 6.32745C14.5262 3.85812 18.2209 2.61263 21.9688 2.86429C25.7154 3.12479 29.2058 4.86071 31.6741 7.69126C34.1425 10.5218 35.3874 14.2159 35.1357 17.9631C35.126 18.1108 35.0871 18.2551 35.0214 18.3878C34.9558 18.5205 34.8645 18.6388 34.7529 18.7362C34.6414 18.8335 34.5117 18.9078 34.3713 18.9548C34.231 19.0019 34.0827 19.0207 33.935 19.0103C33.7871 19.0005 33.6426 18.9617 33.5097 18.8961C33.3768 18.8305 33.2581 18.7393 33.1604 18.6278C33.0628 18.5163 32.988 18.3867 32.9405 18.2463C32.8929 18.1059 32.8735 17.9575 32.8833 17.8096C32.9908 16.2473 32.7873 14.6793 32.2844 13.1963C31.7815 11.7132 30.9894 10.3448 29.9538 9.17011C28.9299 7.98671 27.6814 7.01827 26.2805 6.32093C24.8796 5.62358 23.3542 5.21119 21.7928 5.10766C18.6443 4.90197 15.5427 5.95288 13.1676 8.03006C10.7926 10.1072 9.33797 13.0413 9.12247 16.1891C9.01188 17.7498 9.21184 19.317 9.71081 20.7999C10.2098 22.2829 10.9978 23.6522 12.0294 24.8286C13.0533 26.012 14.3018 26.9804 15.7027 27.6778C17.1036 28.3751 18.629 28.7875 20.1904 28.8911C21.838 29.0015 23.4906 28.7698 25.0442 28.2105C26.5979 27.6512 28.019 26.7764 29.2181 25.6411C29.4349 25.4355 29.7244 25.3244 30.0231 25.332C30.3218 25.3396 30.6053 25.4654 30.8114 25.6817C31.017 25.8986 31.1282 26.1881 31.1205 26.4868C31.1129 26.7855 30.9872 27.069 30.7708 27.2751C28.1333 29.7762 24.6377 31.1718 21.0029 31.1751C20.6869 31.1751 20.3664 31.1751 20.0459 31.1389C16.2964 30.8819 12.8024 29.1467 10.3317 26.3146C7.86109 23.4825 6.61598 19.7854 6.87007 16.0357Z" fill="url(#paint0_linear_3_8153)"/>
<path d="M20.2033 10.9853C20.4162 10.7752 20.7032 10.6575 21.0023 10.6575C21.3013 10.6575 21.5884 10.7752 21.8012 10.9853L27.0147 16.1988C27.0675 16.2522 27.1145 16.3113 27.1546 16.3748C27.1714 16.4009 27.1865 16.428 27.1998 16.4561C27.2237 16.4912 27.2434 16.5291 27.2584 16.5689C27.2732 16.6056 27.2852 16.6433 27.2946 16.6818C27.3062 16.7141 27.3153 16.7473 27.3216 16.7811C27.3552 16.9296 27.3552 17.0838 27.3216 17.2324C27.3153 17.2662 27.3062 17.2994 27.2946 17.3317C27.2846 17.37 27.2725 17.4077 27.2584 17.4446C27.2434 17.4844 27.2237 17.5223 27.1998 17.5574C27.1865 17.5854 27.1714 17.6126 27.1546 17.6387C27.1155 17.7016 27.0685 17.7593 27.0147 17.8102L21.8012 23.0282C21.5884 23.2385 21.3015 23.3568 21.0023 23.3577C20.7031 23.3568 20.4162 23.2385 20.2033 23.0282C19.9933 22.8153 19.8755 22.5283 19.8755 22.2293C19.8755 21.9302 19.9933 21.6432 20.2033 21.4303L23.4939 18.1397H15.7888C15.6404 18.1403 15.4934 18.1115 15.3562 18.055C15.2191 17.9985 15.0944 17.9154 14.9895 17.8105C14.8846 17.7056 14.8015 17.581 14.745 17.4438C14.6885 17.3066 14.6597 17.1596 14.6603 17.0113C14.6603 16.712 14.7792 16.4249 14.9909 16.2133C15.2025 16.0017 15.4895 15.8828 15.7888 15.8828H23.4939L20.2033 12.5967C20.0973 12.4911 20.0131 12.3655 19.9557 12.2272C19.8983 12.089 19.8688 11.9407 19.8688 11.791C19.8688 11.6413 19.8983 11.4931 19.9557 11.3548C20.0131 11.2165 20.0973 11.091 20.2033 10.9853Z" fill="url(#paint1_linear_3_8153)"/>
</g>
<defs>
<filter id="filter0_d_3_8153" x="-2" y="-6" width="46" height="46" filterUnits="userSpaceOnUse" color-interpolation-filters="sRGB">
<feFlood flood-opacity="0" result="BackgroundImageFix"/>
<feColorMatrix in="SourceAlpha" type="matrix" values="0 0 0 0 0 0 0 0 0 0 0 0 0 0 0 0 0 0 127 0" result="hardAlpha"/>
<feOffset/>
<feGaussianBlur stdDeviation="3"/>
<feComposite in2="hardAlpha" operator="out"/>
<feColorMatrix type="matrix" values="0 0 0 0 0 0 0 0 0 0 0 0 0 0 0 0 0 0 0.2 0"/>
<feBlend mode="normal" in2="BackgroundImageFix" result="effect1_dropShadow_3_8153"/>
<feBlend mode="normal" in="SourceGraphic" in2="effect1_dropShadow_3_8153" result="shape"/>
</filter>
<linearGradient id="paint0_linear_3_8153" x1="38.6339" y1="34.6326" x2="2.74893" y2="-1.25233" gradientUnits="userSpaceOnUse">
<stop stop-color="#F57C00"/>
<stop offset="1" stop-color="#FFBD52"/>
</linearGradient>
<linearGradient id="paint1_linear_3_8153" x1="1284.7" y1="-652.168" x2="278.21" y2="-1657.7" gradientUnits="userSpaceOnUse">
<stop stop-color="#F57C00"/>
<stop offset="1" stop-color="#FFBD52"/>
</linearGradient>
</defs>
</svg>
